<mxfile host="65bd71144e">
    <diagram id="D5Q782Q5uL1Xi88Kd4Z6" name="ページ1">
        <mxGraphModel dx="2015" dy="796" grid="1" gridSize="10" guides="1" tooltips="1" connect="1" arrows="1" fold="1" page="1" pageScale="1" pageWidth="827" pageHeight="1169" math="0" shadow="0">
            <root>
                <mxCell id="0"/>
                <mxCell id="1" parent="0"/>
                <mxCell id="64" value="" style="whiteSpace=wrap;html=1;strokeColor=none;fillColor=#2A2A2A;" vertex="1" parent="1">
                    <mxGeometry x="-50" y="40" width="1010" height="690" as="geometry"/>
                </mxCell>
                <mxCell id="61" value="" style="rounded=0;whiteSpace=wrap;html=1;fillColor=none;dashed=1;strokeColor=#FFFFFF;fontColor=#FFFFFF;" parent="1" vertex="1">
                    <mxGeometry x="-20" y="220" width="140" height="150" as="geometry"/>
                </mxCell>
                <mxCell id="60" value="" style="rounded=1;whiteSpace=wrap;html=1;fontSize=22;dashed=1;strokeColor=#FFFFFF;fontColor=#FFFFFF;fillColor=none;" parent="1" vertex="1">
                    <mxGeometry x="150" y="190" width="780" height="490" as="geometry"/>
                </mxCell>
                <mxCell id="2" value="" style="rounded=0;whiteSpace=wrap;html=1;fillColor=none;strokeColor=#FFFFFF;fontColor=#FFFFFF;" parent="1" vertex="1">
                    <mxGeometry x="310" y="220" width="570" height="230" as="geometry"/>
                </mxCell>
                <mxCell id="35" value="" style="rounded=1;whiteSpace=wrap;html=1;fontSize=22;fillColor=none;strokeColor=#FFFFFF;fontColor=#FFFFFF;" parent="1" vertex="1">
                    <mxGeometry x="330" y="321" width="220" height="109" as="geometry"/>
                </mxCell>
                <mxCell id="44" style="edgeStyle=orthogonalEdgeStyle;rounded=0;orthogonalLoop=1;jettySize=auto;html=1;exitX=0.55;exitY=0.95;exitDx=0;exitDy=0;exitPerimeter=0;entryX=1;entryY=0;entryDx=0;entryDy=0;fontSize=22;strokeColor=#FFFFFF;fontColor=#FFFFFF;" parent="1" source="3" target="41" edge="1">
                    <mxGeometry relative="1" as="geometry"/>
                </mxCell>
                <mxCell id="3" value="" style="ellipse;shape=cloud;whiteSpace=wrap;html=1;fillColor=none;strokeColor=#FFFFFF;fontColor=#FFFFFF;" parent="1" vertex="1">
                    <mxGeometry x="420" y="50" width="260" height="120" as="geometry"/>
                </mxCell>
                <mxCell id="51" style="edgeStyle=orthogonalEdgeStyle;rounded=0;orthogonalLoop=1;jettySize=auto;html=1;exitX=0.55;exitY=0.95;exitDx=0;exitDy=0;exitPerimeter=0;entryX=0.853;entryY=-0.007;entryDx=0;entryDy=0;entryPerimeter=0;fontSize=22;strokeColor=#FFFFFF;fontColor=#FFFFFF;" parent="1" source="4" target="40" edge="1">
                    <mxGeometry relative="1" as="geometry">
                        <Array as="points">
                            <mxPoint x="798" y="164"/>
                        </Array>
                    </mxGeometry>
                </mxCell>
                <mxCell id="4" value="" style="ellipse;shape=cloud;whiteSpace=wrap;html=1;fillColor=none;strokeColor=#FFFFFF;fontColor=#FFFFFF;" parent="1" vertex="1">
                    <mxGeometry x="670" y="50" width="240" height="120" as="geometry"/>
                </mxCell>
                <mxCell id="5" value="&lt;b&gt;&lt;font style=&quot;font-size: 19px&quot;&gt;Raspberry Pi&lt;/font&gt;&lt;/b&gt;" style="text;html=1;fillColor=none;align=center;verticalAlign=middle;whiteSpace=wrap;rounded=0;fontColor=#FFFFFF;" parent="1" vertex="1">
                    <mxGeometry x="314" y="230" width="126" height="40" as="geometry"/>
                </mxCell>
                <mxCell id="38" style="edgeStyle=orthogonalEdgeStyle;rounded=0;orthogonalLoop=1;jettySize=auto;html=1;entryX=0.413;entryY=0;entryDx=0;entryDy=0;entryPerimeter=0;fontSize=22;strokeColor=#FFFFFF;fontColor=#FFFFFF;" parent="1" target="8" edge="1">
                    <mxGeometry relative="1" as="geometry">
                        <mxPoint x="434" y="430" as="sourcePoint"/>
                        <Array as="points">
                            <mxPoint x="439" y="430"/>
                        </Array>
                    </mxGeometry>
                </mxCell>
                <mxCell id="6" value="" style="rounded=1;whiteSpace=wrap;html=1;fillColor=none;strokeColor=#FFFFFF;fontColor=#FFFFFF;" parent="1" vertex="1">
                    <mxGeometry x="384" y="371" width="100" height="40" as="geometry"/>
                </mxCell>
                <mxCell id="8" value="&lt;font style=&quot;font-size: 25px&quot;&gt;Servo&lt;/font&gt;" style="rounded=0;whiteSpace=wrap;html=1;fillColor=none;strokeColor=#FFFFFF;fontColor=#FFFFFF;" parent="1" vertex="1">
                    <mxGeometry x="340" y="565" width="240" height="70" as="geometry"/>
                </mxCell>
                <mxCell id="11" value="Weather API" style="text;html=1;fillColor=none;align=center;verticalAlign=middle;whiteSpace=wrap;rounded=0;horizontal=1;fontSize=22;fontColor=#FFFFFF;" parent="1" vertex="1">
                    <mxGeometry x="475" y="100" width="150" height="20" as="geometry"/>
                </mxCell>
                <mxCell id="13" value="Server" style="text;html=1;fillColor=none;align=center;verticalAlign=middle;whiteSpace=wrap;rounded=0;horizontal=1;fontSize=22;fontColor=#FFFFFF;" parent="1" vertex="1">
                    <mxGeometry x="715" y="100" width="150" height="20" as="geometry"/>
                </mxCell>
                <mxCell id="18" style="edgeStyle=orthogonalEdgeStyle;rounded=0;orthogonalLoop=1;jettySize=auto;html=1;exitX=1;exitY=0.5;exitDx=0;exitDy=0;entryX=0;entryY=0.5;entryDx=0;entryDy=0;fontSize=22;strokeColor=#FFFFFF;fontColor=#FFFFFF;" parent="1" source="16" target="6" edge="1">
                    <mxGeometry relative="1" as="geometry"/>
                </mxCell>
                <mxCell id="16" value="&lt;font style=&quot;font-size: 13px ; font-weight: normal&quot;&gt;Camera&lt;/font&gt;" style="label;whiteSpace=wrap;html=1;align=center;verticalAlign=bottom;spacingLeft=0;spacingBottom=4;imageAlign=center;imageVerticalAlign=top;image=data:image/png,iVBORw0KGgoAAAANSUhEUgAABE4AAAL1CAYAAADZ4aEAAAAACXBIWXMAADXTAAA10wEMIUN3AAAgAElEQVR4nOzd73Eb59U34E3m+S6nAikViKlAixl8F1OB6ApEVyCqAlMVmKwg1HfMAKzAZAURK3jNCvzOygcOTBEiQWJ3z33vdc1w5DiJvVyQwO5vz5+//f777w1QlvmsbTcO+FV8rf3QNM3Blm+o+/svvNwAAM92ueUf8FvTNFd3/t5q46+/LJarL04/lENwAknMZ+1m4LEORg4iCOm88VoBAFTlOoKWZiNcuYq/J2CBJAQnMKD5rF0HIe1GZUj352uvAwAA97iNMOXLna+rxXL1mxMG/ROcwJ5tVI5shiRdK81L5xoAgD26G6qsVKrA/glO4BmiguRVhCQCEgAAsrjcCFW66pSVVwaeRnACjzSfta8iHFlXk5g5AgBASa4jTLkSpsDjCU5gi9hc026EJbbRAABQm3VlyirCFG0+cIfgBP43l2QzKDGsFQCAKbqJEGUdpNxdrQyTIzhhkgQlAADwKN0A2ot1mKIihSkSnDAZG603h4ISAAB4knVFykUEKVYiUz3BCdXaGOZ6GH+aUQIAAPt1uRGiaOuhSoITqhLrgQ9VlQAAwOD+rEZZLFcXTj+1EJxQvGjBWYclL72iAAAwutuNlp4LLT2UTHBCkeaz9nAjLNGCAwAAuX0WolAqwQnFiDacY2EJAAAUTYhCUQQnpBZhyZE2HAAAqNK5mShkJzghndiGcxiBiQGvAABQv24myln3ZTsP2QhOSCPmlnRhyVuvCgAATFa3nec0QhStPIxOcMKoorrkOAITc0sAAIBNnyNA0crDaAQnjGI+a48iLHnjFQAAAB5wE608p6pQGJrghMFEdclRVJioLgEAAJ7iPKpQVs4eQxCc0Lv5rG0jLDG7BAAA2JfrqEA5c0bpk+CE3kQ7zrHNOAAAQI9uN4bJfnGi2TfBCXs1n7U/RFiiHQcAABha18ZzIkBhnwQn7EXMLzlpmuZQYAIAAIzsMgIUc1B4NsEJz7IRmLxzJgEAgGQuo4XHHBSeTHDCk8TA1yOBCQAAUICbqEARoLAzwQk7icCkqzB548wBAACFEaCwM8EJjyIwAQAAKiJA4dEEJ3zXfNYexGovgQkAAFAbAQoPEpxwL0NfAQCACekClCNbeLiP4IS/EJgAAAATZo0x3xCc8NV81v7QNM1xfL1wVlK7bZrmKg7wt42/buKvf9v4z78tlqurQr4vAIAixbX0wZ1j7/7zD/HXm/9996DypVc6vcuoQPky9ROB4IQ/3uiPYo6JwGR8txvhx9WdYORqsVz9lvngAQB4vJgn+EOEKXe/hCs5nHcPl12HT5vgZMJiU86ZN+XBrcORL/G1UhkCAMBd0Ub/aqN6pVWxMoru+v10sVydTPB7n7xGcDJN8QZ8ZlPOIC4jHLlaf0mrAQB4rngIug5W2ghXVJD36yaqTy5q/ib5luBkQjbmmHyY+rnoyeWdgEQFCQAAg9moUFkHKa0wpRfmn0yM4GQizDHZu5tosenCkZWQBACAjCJMOdgIU1Sd78+n2MCjorxygpPKxcCpU2+Qz3YdQckqghJvjgAAFCnafNZf7hOe5zaqT7TvVExwUiltOc8mKAEAYBIEKXuhfadigpMK2ZbzJF1SfLERlHjDAwBgkuaz9jBClEP3FDv7aPtOfQQnFYkqky4weTv1c/FI66qSMzNKAADgWzEjZR2kuM94nOvYvrMq4WB5mOCkEpEKnxn++qDLqCy5UFUCAACPFw9q15Uoh+49HmR4bCUEJ4WLBPhU+vtdnzfCEm9aAACwB/HwVojyfTcx+0T1ScEEJwWbz9pu+OuJN6l7CUsAAGAgQpQHqT4pmOCkQFEid2Hi9Teuo13pzBsSAACMYyNEeecl+AvVJ4USnBTGLJNv3GyEJWaWAABAEvHAt7t/OfLQ9y9UnxRGcFIIG3O+cR5hibQWAACSi9mMR/FlxfEf1fJHtnuWQXBSgPmsbSM0mfobzE0MwtWKAwAAhYoq+iMPhb/6uFiuThIcB98hOEluPmu7X6IPEz8NqksAAKAyqlD+dBnVJ0YPJCU4SSreRLoBsK8negrWs0tOVZcAAEDd5rP2aOKzUG4jPLlIcCzcIThJaOIDYC+juuQswbEAAAADms/ag6Zpjie8kefTYrk6TnAcbBCcJBIDYLvWnPcT/Pa14wAAAF9ttPEcT/CBcjc49lDrTh6CkyQm3JpzHqu4vCkAAAB/EQ+X1wHKlOagaN1JRHCSwARbc25jO475JQAAwKPEHJSTiQUoWncSEJyMbD5rTyfUmiMwAQAAnmWCAUrXutO6hxqP4GQkUXJ2MZGp0QITAABgryYWoNzG3BMzIUcgOBlBTIq+mMAvuMAEAADo1cQClJ8Wy9VpguOYFMHJwOKX+rTyeSYCEwAAYFATClC6BRvH7rWGIzgZ0ETmmfglBgAARjORh9XmngxIcDKAicwz+RyBibXCAADAqOIe7Di+ag1QbiM8uUpwLFUTnPRsPmtfRWjyutJv8bIrhzOkCAAAyCYClK765F2lL85tPMA+S3As1RKc9CiGwK4qTThvIjDxCwoAAKQWD7TPKu4C+LhYrk4SHEeVBCc9ib66Xyr81gx+BQAAijSftYdxP1PjANnzxXJ1lOA4qiM46cF81nZ9dD9X942ZYwIAAFRgPmtPKp1/YmhsDwQnezaftWcV9s91bTlH5pgAAAC1iPadrvrkbWUvaheeHHrgvT+Ckz2JoUNnFf7S6ZUDAACqNZ+1bdzL1dS+Y+POHglO9iBCk1Vlm3Muo8pESgkAAFRtY33xh4q+T+HJnghOnqnCdcPWWQEAAJMUm1HPKnso/qP7u+cRnDxDheuGP0eViUFCAADAZMXCj5OK7vWEJ88gOHmiykKT2whMLhIcCwAAwOiiu6ALG95U8moIT55IcPIElYUmqkwAAAC2qKz65HyxXB0lOI6iCE52NJ+1h5E6lv5Lo8oEAADgESqbbSk82ZHgZAfzWdv9cP1SzAFvdxl7vVWZAAAAPNJ81p5UsnlHeLIDwckjVRKadFUmJ4vl6jTBsQBQuVjteLDxXd79z8/xJb7WvlihD8AQYnRDV33ysvATLjx5JMHJI1QSmlxHa44d3gA8W1w0roOQzT9/SFDGfLMRqqziz+7zr6u0vFJxCcBzxcOB7oH0u8JPpvDkEQQnD6gkNPkUlSYuFAF4tOjn7r7ajXDkoJLheJfrICW+vni4AMCuKpmBKTx5gODkOyoITQyABeBRooLk7lcNAcmurjfClK46ZbXffzwAtalkcKzw5DsEJ1tUEJpcxwBY/d4A/EWUF7cRknR/vnGGvmsdpqwiTFGZAsA35rO2a915X/CZEZ5sITi5RwWhyafFcnWc4DgASCCehLUbX6UPsxvbbYQoX78EKQCsVdC6Izy5h+DkjvhB/0+qg3q87kLueLFcnZVywAD0Iz7P1mFJyaXDJVgHKRcRpKj2BJiwaH89K/jzV3hyh+BkQ/yArwpNB23NAZiwqCpZhyVv/SyM6jquJ858LgNMUwVbd4QnGwQnofDQ5HOEJrbmAExIfHYdqSpJ7TYqUS4MaweYnvms7UYo/FzoN/7TYrnqwp/JE5yUH5qYZwIwIRthyaFZJcURogBM0HzWtvH+X+L95o9GQQhO1qXNVwX+EJtnAjARG204x8KSaqxDlDMrjwHqV/jck8mHJ5MOTqLvbFXgD293sdXqmwaoV3xGHUZ1iXXBdbuJi+kzg2UB6hWf7WeFziKbTTnon2xwUnBoch2hiXkmABWKJ1LHEZqUusqQp7uMAEVFKUCl5rP2rMChsZN+eD/l4OSiwKTPEFiACm1Ulxwb8kq4jW0MqlAAKjSftV1F6S+FfWeTDU8mGZwUmvBZBwVQmZhdchztOKpL2KZ7cHJqFgpAXeaz9jBad0q6BphkB8TkgpNC10FNfhgPQE1iuv5RgSE+47qOAMU1AUAlCt3wOrnwZFLBSaHlUEITgEpEYHJi2CvPdLPRxqN9F6BwUYF6UVi77qQ6IiYTnESS92uCQ3ksm3MAKhHB/YlVwuzZeg7KqQAFoGyFLi/5tFiujhMcR+8mEZxEgndVUPmT0ASgAgITBiJAAahAhCcXhVWmTqJDovrgpMDkriu/PRSaAJRLYMJIBCgAFShwmcm/ar9/nUJwUtLa4UlOKAaoRcwwObVSmJEJUAAKV1h40n3uHNS8Pr/q4GQ+a7uLhvcJDuUxhCYAhTL0laS6KtYTQ+YBylRYeFL1/Wy1wUlhG3SEJgAFihlaJ9YKk1wXoBwtlquVFwqgLIWFJ9Vu2qkyOClsF7bQBKAwMT/rOL5KGTwOlxGgVFtKDVCj+aztrjd+LuRb+7hYrk4SHMdeVRecxMXsVSED+YQmAIWZz9rDmB9h8Cul+mj+CUBZCuuomNVW5VhjcLIqpMdcaAJQkGjLOTPHhEp07TvHi+XqwgsKUIaCwpPqhsVWFZzMZ21XEvQhwaE8RGgCUIiNtpwSPl9gV9p3AApSUHhS1T3v3xMcw15E6bTQBIC9iW05V0ITKtZVUF3FwycAkotNaecFvE6vo7W5ClVUnET59FUBA/qEJgAFiCqTk4JW2sM+XEf1yZWzCZBbQdt2fqxhLX4tFScXQhMA9iEqGL8ITZig7ungr6pPAPKLtb8lVJ6cxtbbohVfcTKftacFXNzexHAcoQlAUqpM4C9UnwAUoJDKk+KLCIquOImngtkvcLuJwodCE4C8NmaZCE3gD6pPAAoQlSefkx9p8fNOiq04iSeDX5K36NxGsuZpDUBSBW1kK9FtBFJNfGZvbm75beO/e6xX8bXWXQscbPz166mf8J7YvAOQWNwbrwr4HPx3qWvwSw5OVjEJPrN/CU0AcorB4hdutp/lJsKQq40g5OufY1ZaRgVRE6FKdzHZClae7TbCkyIveAFqV0h4chsjLIoL4osMTuaz9rhpmp8THMr3VDE9GKBG81l7FCWj2QeLZ3IZwUj39WWxXK1K/CZiQN2rCFXWXy8THFopPnWzgLQgA+RTSFfG9WK5Km5YbHHBSVzw/JrgUL5HaAKQVEHr+8Z0HU+trqJ6pOrqybjQPIjKlDb+Wqi2ncGxAEnF/fIq+efYx8VyVdQMraKCk0LKj85jQA8AiWjN+a7rODersdtssogLz3bjS5DyV1p3AJKKltVl8tenqLEWpQUn2VcPf14sV4cJjgOADbGF7czN759uIiT5GpYISh4WF6Hd16Hw7S8+LZar40THA8D/2pJ/SXwubmLeSRHXIMUEJwWkZsXvpgaoka05f7qO8GilxeJ5ogL2ML7elvy97Ek3/+bQNRBALgUUHhQTvhcRnMQFylXi4W1dueorFwwAecRnx9nEb2zXYcmFVbL9EKL86SbCE6EcQCIFzHablTBwvpTgJHNSdhuVJi4UAJKY+DyTm9gYJCwZmBDF3BOAbAqYE1pEy0764KSAFh0bdAASKWSa/L7dRlB0KsjPIcK7LkA5nuC6458Wy9VpguMA4H+fSVeJr43St+ykDk4KaNExEA0gkRiEdjqh0OR6o7pEu2hS8RDoaGJrsG0ZBEgkHiz9mvg1Sd2ykz04ydyic7lYrtoExwHAH58ZXZD980TOxbnqkvLEA6HjCFGmUIViaCxAIsk37aRu2UkbnCRv0SlqdRJA7QoYfLYPt1Fdcurzp3xx8Xo8gTk8tg4CJJL8miltR0fm4ORL0qcxhsECJDKB0KQL60/M06pTPCjqVma/qfjbtHEHIJH5rL1KHNz/K+PnRcrgZD5ruwuIDwkO5T6GwQIkUMCU+OcSmEzIBOagePAEkETyYbHXi+XqIMFx/EW64CRexP8mOJT7GHQGkEDloYnAZMLiOui00nXGwhOAJOazttv89p+kr8fHxXJ1kuA4/vT3JMexKeuF4nX0IgMwoopDk5uoanwlNJmuxXL1ZbFcdRezsxiuWpPuyeYqLtYBGNFiubroZookfQ2O40FCGqkqThJP+fWEBCCBSkOT26gwOU1wLCQTLTynFQaFWp8BEkg87+RzPEhIIU1wEhfDX5L2WflwBxhZpaHJR1tyeIx4uHRS2Rpj11cAI0s+72S2WK5WCY4jVavOSdIX69yHOsC4KgxNuhaMf3b9u0ITHiOuRQ4ibLut5KT9EoEQACPpWkRjOHlGae7DU1ScJB4I2/WbH7ioBRhPZaFJ97lylOXpCWWqcICsyhOAkc1nbfe58j7h65BiUGyW4KS7gHwz+oF8K+UOaYCpqCw0STchnrLFkNXTStp3hCcAI0p8zXUbxQxfxjyI0Vt14kM/Y2jyUWgCMJ6KQpPLCOKFJuxVbEQ4SLwVYRdd285BOYcLUJfossjYsvMixnqMavSKk/ms/ZLwScn1Yrny4Q0wkkpCE9tyGEwl23dsMQQY2XzWdiHFh4Svw6iDYketOIkXJVtocpt4OA7AVJQemlxGWanQhEF0F5Px0OdjwWe8e6q4UnkCMJ6okL1M+BKMWnUyWnASTxOPx/r3f8eJJx0A45nP2rPCQ5OfFstVO3YvLtMUF7yzGERconV48sqPMMBojhJucHsz5ia2MStOMq4fvvR0EGA8EZq8K/QluI5ZJj5HGFWUMndVG+eFvhLd9eFFPGQDYGDx8CfjbLbRjmmUGSdJ1w+nmNYLMFXzWdtVIf5c6Lf/KSoWra8nlRjCf5bwYdVjXMfME79XACNIuv12lC2FY1WcpEyvhCYA44jSyxJDky50//diuTp2c0dGG5t3rgt8gV7HwFsAxpGxZed4jIrEwYOTmPqerQz7Wmk1wDhiEOQvBZ7+66hUvEhwLLBV92AoBseWuLb43XzWukYDGEEUFmR7D34xxqzUMSpOMlab2KIDMIIITUZbLfcM592NqEpFStJVRjVN82PCp4cPeT/mQECAKYu2mGxVi8dDDxEfNDiJapOMPVK26AAMLMosS5y98ONiuXITR5EWy1X3O9cWuHXnF2uKAUaT7brnxdAFGUNXnGSrNrnROwswmtLWDt/G1pyzBMcCTxYPjLoQ4rKws2hNMcAI4nMjW7vnuyE/EwYLTpJWmxwZ5gcwvJhZ8LagU7+eZ6JCkSp01z+L5aotbGWxNcUA4zlJ2Oo5WGHGkBUn2apNPi+WqxL76gGKFutR3xf0PVzGSlTzTKhOtJ39VND3ZdMOwAii4CBby85gVSeDBCcJq01ux5jECzB1MaOgpFaXbghsqzqRmsVmwZKGxnYXyq7jAAYWmwSztXkOUqAxVMVJtmqTU08OAYZV4DDYj4bAMhUbQ2NLCU9+NiwWYBSTrDrpPThJWG1yEyuVABjWaUHDYH/0WcHUxAyfksKTlXknAMOKAoRsg2J7v2YbouIk24Wn0k6Agc1nbfd04l0h5/1Hm3OYqghPXsVA5Oy+Dov1wwowuGyDYnuvOuk1OElYbXIZfVkADCTK6UsY5thdAMyEJkxdzPRpCwlP3sxnreowgAHF50S2goRePwv6rjhRbQIwYQXNNbmNzTm2rUF54ckH804AhhUPmm4SnfZ3fbZv9hacxAdYpmqT8yg/BWA4JwXMNVmHJj4jYENh4cmFeScAg8s2KLa3Qok+K04yVXfcJqx+AajafNYeNk3zPvn3KDSB7ygoPHlZSEsgQDWiUjfTeuLjvkL0XoKTGMySaQig9cMAA9po0clMaAKPUFB48i4CWwCGk6lg4kVfVTB/+/333/f+D53P2tNETxm7C+NX8aEPwADms7YbxP02+bmemWkyvGjlXT8N6v587GyK7nP8z5DLaze8CERXydvvXPcBDGw+a88SFU7cLJarvW/Y2XtwEh+qXxINAvy4WK606QAMJJ74/if5+bZyuCdRdfoqKhTWwcgPPd5s38R1x/qrC1e+qCTqRyHhyefFcqXyBGAg8dn/30Tne+/XeX0EJ12pzs97/Yc+XS9pEwD3Sxie30dosidxodRGOJJtKHwTrSVX8bUSpuxHVA2tkv+e/3uxXF0kOA6ASUhWdXK5WK7aff4D+whOvsSArgxcHAMMqIAWnZ8Wy5UBkk+0EZQcRlCS5fN+F5dx07/S7vN0BYQnWnYABpSw6mSvLdl7DU6SlWerNgEYUAEtOt1a+mxr89KL13UdlpQYlHzPbdz8d4HfhZvs3cxnbfdzsUx8iFp2AAaUbNbpXq/79h2crBKV6ao2ARhIAS06bqB2EGHJ+itzO8a+fRai7GY+a7uL0l8SH6KWHYCBJLwe/Me+Ps/3to44SnOyhCY3QhOAQZ0kvsG+7ms1XU261ouuP3k+a3+LyqF3EwtNmmgz60KA/9e1nUUowHfE9dbHxOfoNC7kAehZhBSZ7sP3tip5b8FJsv3NtugADCTK9bOUZd7VtWK0qgfu191QdkPdYz7ZrxMNS7b5GqJ0QVJXehwPiLhHbC88T3puXrouBBhUpllyuVp1kpXkmG0CMKD5rL1Kupp0HZrYpHJHhAAnE2zFea5usOyp1o9vFbCm+F/eCwCGkWzDzl5aNvdVcZLpwsu2BICBxAr6rDdKx26U/qqrDop5ZP9VXfIkXUvyf7oKHW08fxVVXYcRWGbk+hBgOJkq/fbyeb2vipMsTxutngMYSPKBsJ8Wy1WmFtJRRTvVSaJZZLW4iV7uU9cef0i+acfiAICBJKs6+ediufrynH/AsytOotw3y9NGFy4AwzlNGppcC03+sFFhshSa9KKbn/GhCxBVoPxhsVx1P28/ZTiWe5wYFAswmKqqTvbRqpPp4lQZJsAAug0siZ4ibPo61yTP4Yyje6ghMBnUixgkK0D5Izw5jdXO2bxMdt0KUK2o8LhM8v2lCE6yXCCcqzYBGEzWoPpwyp8FsSXnLGaYCEyG9zIClFW0rEzZUbQyZXNsQxLAYLJUnbycz9rD5/wDnhWcxL88S5m2VXMAA4gbwow35R+jTWCSYlDvl6SVQFPT/X4suxBrqq0hG8Nis3nhmhFgGHFddp3kdI8XnCSqNvn83GEvADxaxuGK3VyTSd4MdW1TMaT9Z1ty0nk35fknsdXqY4JDuetdtBsC0L8sVcrvnvMw48nBSfxL3z71/79nZpsADCBuAF8mO9e3SZ9s924+a7uw6NfEK6H53/yT1RRbRCLQzNLjvsm1I8AAYptZllX1T75efE7FSZanJzdTLs0GGFjGqo6TqVUdblSZfEhwODxO175zFS1VU3OU6KJ57Y05NACDyRJWPznDqCE40acKMIC44ctWbfI5NnhMhiqTonXVJz/PZ+3FlGafRLCZsV3JNSTAMLK0eb95avXnk4KT+JdluGDrnl5cJDgOgKrFTV62m4zbpDdjvYiNOStVJlV4G7NPJlPxsFiuLhKuKFZ1AjCACNCzfAY8qV3nqRUnWXrJL6wgBhjEccLBo0dT+QyIm7svVgxX5UVs3plS1UPGlh1VJwDDKLpd56nBSZYnfAZ7AfQsqk2yzWX4HE+wqxctUksbc6r1IQbHVt+6E0FntvcSVScAA4i5pDcJzvXrp7Tr7BycJGrTuY41dwD06yjZTfttwpuvvYvWnLNYM0zd1oNjq1+RG9sVsm3ZUXUCMIwshQ87d9A8peIkS5uOahOAYWQLKarfohPVB92TmXcJDodhdIOXu8qTKazWztayo+oEYBhZqoV37qB5SnCSpU3HUFiAns1n7VGyTTrXtW/RiaqDL7bmTFJX2fWf+L2rVgSf2X6PVZ0A9CzRkNid23V2Ck4StemcGwoLMIhsNxNVt+hEaLIyz2TyfpnP2qoDwsVydZKk133tzRRapQASyLKaeKcKz10rTtJs00lwDABVS1htch6DxaoU5/tXoQnhfcy4qVm2yprqZycBjC2G+2do19zpM2jX4CTDB9zNVDYpAIws001N1QNhIzT5JcGhkMu7msOTCEIzDYp995RNCwDsLMNn207tOo8OTmJQXYY2HaEJQM9iUOKbROf5tNYWTaEJD6g6PFF1AjBJWT7XHj0YfJeKkyxtOrWXrQJkkOlm5ibmIVRHaMIjVRuexKDATwkOZe0oHhYC0JPFcnWVZM7VozOO0oKT6zjJAPQkyhYzrcEVmkDdlScnidYTv0j0sBCgZhk+094+NizfJTjJsN9etQlA/zJVm1wulqvq3vuFJjxRleFJtOFl2iJkNTFA/4pq1/m/x/yPotc9w5R/800A+pcpOKnuBiY+U6ccmnSVBevq0c0tSb9t/P21V/G11q2L/SH+XqaNT0PqwpMubMg2G+S5TmO+SIbrzZfd72nNW7wAxta1as5n7XWCOaqHj8kZHhWcJGrT+ZLgOACqlWwF8WVtNy7zWXswsYcAlxGGdF9f9v16xvl8FYFKG39OYZ1zF558qWn2T1d1Mp+1x4lCxaM7wR4A+9dVnfw88nl9VMXJ337//fcH/0fzWXuVIAn6abFcZSrjBKjOfNZ2N/Vvk3xfs5qCk5gdc1X5jf1l3Gyuxnrt4jy38dAnS8VsX36srZWtC4QShbf/qHWbF0AG8Zn93wSH8q+HZqk+GJwk+mb+qeIEoD+J3u+bqDbJMFtrL2Lw2CrJWv99+xxVNBcZbzKjNeowvmps73nwYq8kyeb/eGgH0LNSijQeMxw2w4XrjdAEoHdmm/TnrLLQpKss+TGeyB92VQ9Zn8x3lS+L5ep4sVx1weCsaZrzRBtc9mEVoWcVooImw4rKJmauANCvDNXFD2YepQQnhsIC9C9LcFLVbJP5rD1J1P70HF3Y8CkqQNvMYck2EaIcxVyUHxPdoD9H14p08dh1ioXIUuXxMuboANCfDC2n1QQn1hAD9CjaGbK0MVRTGj+ftV17yIcEh/IcXbjwsQsbonKj+ArQLvCJ4KcLUP4dFTQle13T701c92WpClJ1AtCjaDcd+0HGi7gW3uq7wUmk7GNfSN/W1LsLkFSWapOuNbOKKsNonyg5+L+J4aNdYHJS65DM7uct5unMCg9Q3sV8kOLFz1qWICjDZkmA2qVv13mo4kSbDsA0ZLk5qGm2yUWhG11uo8LkoLaNLd8TbWxUzS0AACAASURBVDzrAKXUFp7TilpLsgQnL6JyDID+ZLjnLz44sUMfoEdxU5DhBv+2lhv1mGtS4jDY82jJqbbC5CERoHTVQj8VOES2+z0+q2HeSfz8nSc4lEbVCUC/klQbv/nef/lQcJLhqYWKE4B+ZbkpqGJGQ/TIljbXpKuwmHWDU6camNwVawlfxbrlkryuqHIry/chOAHo3+jtst+bc7I1OIne7LHnm1y7gAPoXZabguKrTeJJf2nfx8eYY6LC844YInsYA2RLqj55/9CQuxLEIOIMc2e06wD0L3W7zvcqTsw3Aahcojad8xq2tcQT8izbiR7SVZn8q2vLyX2Y44sS4tKqT6po2UkURApOAPqV4QHO1o6b7MGJp18A/VJtsifxhP99IYf7OYa/2lr3SBvVJz8VccB/BHjFh2Ix9yhDtY/gBKBHcU0y9vv9kypORp9vomwYoHcZbgZuKnm/LyX8+akLALTCPk3MPvlXIZt3qmjZSfK7pV0HoH9jd5y82Lad7nvBydjbADL0tAJUK1GbTvFDYWOLTvYWndsYAFvFEN4xxVOx7sLquoDDreH1zvI9CE4A+pW2Xefe4CTJ0wnVJgD9yvIkuuh5VjFM/TjBoXxPd4PfquTcn2jdOUi0Mneb1/NZm/3n87sSDYmtoXoHILOyghPzTQAmIcPT088VDIU9TVK5s806NDHPpAfdCucCwpOTCgbFZmjXebmthBuA54trwrFbYe/NQrYFJ+abAFQsLv4ztJaUXm3Sfbi+TXAo26xDE/NMehThyY+JD/FFBYNis7xXaNcB6NfYD3ruHVmSNTgx3wSgXxkqC28rWDuf+WZUaDKg2P6SOTx5H21lRYqf4wyVPYITgH6NXkBx3+iSb4KTKOUc+ymkahOAfmUITi5Kvqmfz9quyuBNgkO5j9BkBAWEJ6UPis0QtL6uoO0JILOUc07uqzjJ0LupDxugXxnaS1Sb9ENoMqIIT35KenhvS15PvFiuLqJSbWyGxAL0JMlMtm8qNO8LTgyGBahYkhun27gJKlJUm2RcPyw0SSBWPmcdGGvWyfMJTgD6NfbojkdVnIzd/3rjgg+gVynadBIcw3NkvPnsnsQf+gzNIQbGfk54aG9KrjoRnABMwtiFFN+0Ymds1dGmA9AvlYXPkLjapK1gtXNtjqIKKJvjgs9zhvcOc04A+jV6JnB3/fx9wcm963cGpE0HoF8ZBpqWXHGSsdrkxyQ9wWyI6p/DJHM5Nr0tdcNOnNMMlTyqTgD6k27OyV+Ck7upykhc+AH0JEmJ/mWp7SRx/rJVm5zHQFISiiqgo4SHVvKskwwP2QQnAD2Jz86xHzp8t+Ikw9MHwQlAf8w3eZ5sN5vXhbddTEIMQv6U7Ht9V3C7iTknAPUbOxf4bnAydsWJwbAA/cpQWVhkS2a0NmRoc9p05HOzDIvl6jjhvJMiQ7d4Enkz8mGM3doOULuxrxe3t+oYDAtQvbGfkt4UPIsj203mT+aaFOco2byTjC1EjzV61Unh24kAshv7GucvAfnd4GTskk0XgAA9iYqJFyOf35IHgGe6yezmxJwmOA52EEFXptft5XzWHiY4jqcw5wSgbqNvCtwcpH43OBm7BFlwAtAfbTpPFCuIxw6dNplrUqjFcnWSrGWn1KqTDO8lGd5TAaqUpKr22+AkyYCw0VMlgIoJTp4u01P5j1p0ipcp+Hpb4pDYmO0zdgAlOAHo19jv839WFm5WnIz+5u9CEKBXGeabFBeQR5nm2wSH0sR8DC06hVssV12AeJ7ou9Cu8zQvC95MBFCCNNeNm8HJ2KuIs02aB6jN2AG5apPnO7ZFpxoniQbFltr6pV0HoG5jF1bcW3EydnDiQhCgJ/FUdOwZHaVWFWaZAdFV7JwlOA72IKqvslQPvd4cgFcQwQlA3ca+dvyzqjBTcFLypgWA7Mw3eYK4mXy993/w05wkOQ725zRR1Ulx7TpRfXUz8mEITgD6M3ZxxZ/XgCpOAKZh9LWZhc6xyrJuVLVJheLGP0vVSalzTsZ+XymxUgegCDETbFTrWVaZghODYQH6M/Z7/OXI//6nynIzqdqkXlmqTt4UOuh07OvHNyP/+wHo19fKws3g5OXIJ9wqYoD+CMefJsM2HdUmFYuqkyyvb5YKq12keRoJQC9SPHz7GpxkeMMvcUUlQEHG7sMvcQ1xlmoT64frp13n6TKEsuacAPRn7JEeXx8qrCtOxn7DH3uwF0DtbNTZXZan76pNKhcPjz4n+C6LqzgxIBageimuIf/+iP/NEFSbAPRkPmszDIYtcXNahpvI87gxpH4ZArKXha4lHvs6UqsOQL3+MuNk7KTcRSFAf8a+qC+uqjBaWDOsIVZtMhGL5eoiye+KOSe7K/GcAZRi7Pf4v2zVGfui2kYdgP6Yb7K7DKX3N4VW6vB0FwnOXYkhgMplAHqVpVUHgP6MHY5r03maDDfRDCtDhVGJ8zrGDk6sJAboT4q18+vgZOwLRE/UAPqjHXN3GYITbToTs1iurhK067wucL2uymWASmWZ9abiBIC+lXhTM/q2ubiJZnoyVBoVVXWS4aJ6Pmtt1gHoz+3Y5zZLcGI4LEB/xi4jL+o9PraKjL2+WSXmdGV47UsMAS5H/vfbrAPQn1EfJnUbKlNs1fFUDaBeBb7HZ1jHar7JRMV2nbGpntid4ASgYuvgZOwnawD0IKonxjR6aeUTZJhvouJk2saunsgQHu5q7IBW2ATQn9Grl804Aajb2DdAJVYUjn3OrrMMQmM0YwdnJW6J8TsDUK+xryd/yBCcjP1UBQA2CZsY2+gVRwVu1hl7JXGJVToAPM7B300BB6ja2Dc/NursTnBChp+B0q4PBScA9ObvhlkBVG3sm58Sy+fHnvslOJm4aNW6GfksuD4EIAszTgAgiwTDdLubZoNhaRJUUJRWcSJwBKjX6O/xGYITF4gA9Rr75m9XYwcnY1cZkIfrox0kGKis9R2gXimGwwJQr9KCk7E5X6yNHQRkWMtdkrFb/ADoz4HgBKBubn52M/b50m7Amp8FAEji70oLASCNEofp0g8/C7u7Lu2AASiDrToAkIebZb5aLFdjV5yU+GDN7w9AnUZvZdaqA0BvbIjZmfYMsjCzA4AUFsuV4AQAEjETBgCAvxCcAADkZGZHQeazVvAKUKkMwYl+VACAb7lGAoAEMgQn+rkBAACAlLTqAAAAAGwhOAEAAADYIkNwYpAWAAAAkJKKEwCAnF55XYpimC9ApQQnAAA5vfS6lGOxXFl4AFApwQkAvZnP2h8KO7urBMcAAEAighMA+nTg7O7E3C+yuPFKAJDBfNaO3rraBSdfUpwNAAC+ms/asUO0Eq8PzYQBqJPgBAASGXu4oxs/eDozYQDohVYdgLqZ2bGbsYc7Ck5YG7vixIYYAAgZghMXiQD1MuNkN84Xa2MPVrYhZjdmwgDUayU4AaBPpW3VGftm8UWBm4johxBtBwkGB2p9B6iYVh0ACIvlKkN7ghtmmgQ/B6W1+XkQB1Cv0a+NDIcFqNvYNz8l3syMXXJvJfHERfXEi6mfBwAIo1fj/n2xXI0dnChJBqhXicHJ2J+LKk4Y/WdgsVyVVnGiQgeA3mRo1Xmd4BgA6EeJ4fjYc04EJ4xddXRb4CvgQRwAfUkxHBaA/owdApQYjo9dcfIywaBLxjV2cFLiRh2/MwD1Gr2NeR2cWKEGUKEkw05Lk+Gm8TDBMTCC2Ko0duAoONmdVh2Aiq2Dk1Gfrs1nrUF4AP0Ztey+wPf4DDeNPhenK0NoVmJwolUHgL78plUHoH4l3gSNJqp0bNZhLBle+xI3Lo5dpWNLJUB/3ox5bhfL1dU6OBm7lNtTAoB6lRgCjB02vZjPWu060zT6617aRp0MM4ESbKkEoEfr4MQGAYB6jX0TVOLQxgw3joKTiYmw7MXI3/VlgWd97PeYErcQARQhQTj+9T1eqw4AfSsxODEgljGYb/I0Yz+A0w4J0J+xryO/vsenGA6r4gSgV2NXTxT3Hp+kVaFr1zlKcBwMILbpZAhOStwOM/ZFtTYdgP6kGOuRJTgx4wSgP2PPsXoRN4WlydCyIDiZjgxtOk2hwcnY4azgBKA/KaoKs7TqqDgB6Ek3CTzBuS3xfT7DDeSbDIMvGcRxgtN8HVulSiM4AaAvXz8XvwYnCUqSMzxhAaiZ9bq7u0hyHBluqOnRfNa2CdbpNiVWm0SwOPZ1pOAEoD9jX0P+LzjJYD5rVZ0A9GfsC/viqiaiUifDtoyjQludeLwsLVlZwsJdjH79WNr6ZgB28k2rzvXI589FIUB/rJ1/mgw3ki9UndQrKibeJfgGbwsNAMZ+b7GKGKBfbzKc383gZOye1hLLuAFKMXbFyetCqybStOuoOqnWSZJvrMRqkybB9aNVxAA9yXDts36osBmcjP3G74IQoD8GxD5Nlifwqk4qlKjapCl0m06TZdsCAL1Ic+2YqeLEjBOAniQpwS+usjA2jHxOcCiNqpMqZak2aUqsOEkyGFZwAtCfsTOCy/VfZKo4sW4RoF9jb9Yx5+R5VJ1UJDbpZKk2+VzoGuIMYayNOgD9GfuB0Z+fjZkqTl6O/O8HqN3YAXmRs6wWy9VZogGQH+IpO+XLVG1yluAYnmL09xQbdQB6lWaO1Z/BSYY3/nj6AkA/xg5OXhS8ej5TG0OpN7mE+aw9yrIlILbpGAz7NGNvpASo3dgPi/6sKvz7nf9i7CdqnqIB9Meck6fLFFa8mc/awwTHwRPEnJrTROeuyCAuKq/GrlY23wSgX2O/z28NTsw5AahXhov8Utt1VglmxGw6Myi2WGcJBppu0qbzdIITgJ4k6Ub5tlUnjD3gSqsOQE9i+OPYN/8lv89nqhJ4oWWnPFEp9DbRgV8vlqtSb/4zvJeYbwLQn9HbuzcHp2cLTqwkBujX2Bf6LwqeZ5VpSGznrZadckSFULawK1MYuKvRf/YLDp0ASjB2N8rl5n+4G5xkuKDWrgPQnwwX+kXe7MdTh2xDNM98bhbjIlmLzm1sjCpODJke+1xePuJ/A8DTjV1U8ZeikmwVJ42qE4BeGRD7PJlWyDZx81jqRpTJmM/ak0RbdNZUmzyPNh2Afo39ubk9OFksV4ITgIpFafnY7SavS62SiM/JzwkOZVN3Ps07SSpa0z4kO7pbwcmzCU4AehKVhWP7y/v83YqTJkHpoQGxAP3KcMFf8myOjDec7+az9ijBcbAhLvwyVgSdbQ68K0mErq/HPuTYtAVAPzIEJ99t1WkS9L+rOAHol+DkGeKGKeN8g18KHrxbnY1hsJnmmqyVXG2S4WfcfBOAfo2dCdze7ca5LzgZu13HgFiAfmUITt7EjWWpss06WbtIUt46afGzvcpQGXGP8ySt2U+lTQegfmOH5N8Uk2SsOGm06wD0J8mck0bVSS+66oaV8GR0Z0lDk9vEod+DIpB6m+BQBCcA/Rr7M/Sb9/n/u/s3uovB+Wz03MIFH0C/urkL70Y+x4dxg1mq7gZ0mfDY1+FJGyEZA4pBvRlu7u9zqtrk+cw3mZ4I7R66P/nNey48X5K2428+K78JTsL1yCmPihOAfq0SBCdvu9bMUm/k4kHDeYLzeB/hyQgiNMn489BUsEmnc5zgGLJt1WJPYlTAq7gPWf/1wS5zijYePt/EjdfV+k+BGzxahizgm2unbcHJ1cjBSbda8YdSJ74DFKCrOPklwWEeFn4zd5L4Rll4MpB4Gn2a+Gehc1LydVWWbTradOoRP1PtxtfLPX5zL+PrzfpvRKhyHT9Dq8VylXHjFmQwenBy33XTfTNOGnNOAOoWN1DXCb7JolfoRrXMxwSHso2ZJz3bGASbOTS5WSxXpVebZJmJ5Ga3YN174XzWns5nbXev8994gPBuz6HJ93Th3/umaf4zn7W/z2dtN9D7qPBh6bBvY1+z3DvDbltwkiFNF5wA9CvDDcDrCm7qT6MsO6t1eFJ0SJVRPLHOuj1nUw2vfYY2nevCZ8RMUhdKzGftcYQlv0ZwkeV39m2EN/8vQpRih6bDPsQ14dhr/O/NQu4NTpKU9ApOAPqV5clp6VUnvyW5qfue7iLkl/msLXajSjYxvG7s1ubH+Fz6bIU410NVBHyPNp2CRHVJN3fo/zVN83MBv6tvoxLlSwQ9qlCYopTzTZrvVJw0CdYsvvaGAdCfCMkzVEoU/zQ8etUzrie+60M81fT5+gzdTU1sVBr7qdhDbiupNsnyPZS8BWwyuqBtPmtXUV2SuYVum5cR9HQByon3ayYmQ3Dy+IqT7/0fBqbqBKBfGapOXlTSRnIUN6rZdU81r8w92V2U/F/ETU0Jih4I2/xvhkyGm98bQ5ZziwqTVYSab0r+XkIXzH4QoDAxY6/zv9n2ufm94ES7DkD9sjxBraHq5Ets2SlB90TzV607j7fRmjP2Rd1jXVYwELZJ9N5gKGxSEWieRYVJDYHJXZsBillVVCs+Z8e2tXgke8WJAUkAPUrUrvOmhgqIuFEtoWVnrWvdUX3yHXFTdhpPsTPM2XiMWlp0mkTzg7TpJBRtc18KbcnZ1XpWlU1p1CrDvf/W4pGtwUmSVZUvY2I9AP3J8iQ1+4DVxyqlZWftteqT+21UmbzPeHzfcVzD9pfYMJIhrNKmk0x3fxBtOT8XMGto3954z6ZSxVacfPf/OCBVJwD9yvIk9V0NPdxxw1ri0/4Psc1h8p+7cVN2UViVyVq3RaeW6ogsYao2nUSiXeWq0racXawrBj1kpnjxczz25qvb74XkJQQn5pwA9ChRu05TS9VJbNk5T3Aou3oZ6zBXSXqNB7XRlvPfgmaZbLqppUUnLqKz3Bhr00lgY5bJLxOsMtnmdQz7nnzgTfFSV5s0hQQnJV64AJQmTbtORZsDjhO0vD5Vd8O6nEqAEjdkJzErobS2nE2HpW/R2ZClDUGbTgIRpK0mMstkVy8i8K5hGDTTlSH8e3pwkmTOSSNFBehdlguuF7W0aMZnaGnzTu6qOkCJlpzTCEw+FP4U+6dabvDjJjnLDbKb0ZHFINSrBGX82b3vWgytLaZQxVecPPgPGIjgBKBHMZcjS3VENQPv4ka2htaJdYDydR1m6Rfm3QOZmGHy36gwKb3s/7yS1cNrmVr2zDcZUcwzWWnNebSuUn8lPKEkUSQx9u/4g9WFghMA1rLceL2Mi+UqxLyTj5V8Oy9jvkAXoJyVVBG6ri7pwp+urL2iVuDrijZSNXHDl+X3/3MN24lKFZ8D5pns7rXwhMKkb9NpCgpOXkxxSB3AwC4StZVUtWZxsVydFDosdpsX0UrR9dX/tg5Rsl2odyX+EZZcbVSXlLYl53u639e2orkmTYRAWW6UVZuMZCM04WmEJ5SkiODkb7///vuD/5TYkz72ZPNPi+WqmicqABnFxoIsswV+rGit6ldxA197n/5lXICsFsvVoA9fYhZCu/FV85PqdWhSzeDSuMn7kuR169ZSuukcgdBkr64rDFepSHxu/5rgO/rHQ78n//fIf9BFguDksKZSVICkThMFJycVrgFtI1SoOTx5E18f5rOvxaLXMdjxy/qJznMDlRge2n0dbPyZZXXtUA4r3PaSqdrECuIRCE32bl15IjwhqwytmdeP+f14bMVJliToX1bCAfQrWVVEjVUnmZ6qj60LVTYvVq7u/Oe7bboHzttXNf5evIp2qiz+ab7JsOJ+wyDYfnQ3hgc1fmOULeaOjd1C+6jOlsfMOFlvBbjZy2E9TzXDAgESy7Sd47S2Hu14qtEWvqZ4X15vVKi8iRkkHza+3tz5ckNVYWgSMs01uhSaDCuCM6FJf15HKy6kETNMM8wde9TvxqOCk5BhSKzgBKB/mYbEvqixTTMeSAhP2FWVoUncNGdpEWyShcfVi3D8QmjSu3fzWWvsAZlkuLe/fWxHyy7BSYbJ4i9KWn0IUKKoiMh0c3Zc42YA4Qk7qrXSpEn2fnMTK8QZzukEhmZn8bNNpSSS4b7+0e/3jw5OEn2ICE4A+pfpieuLWp8AC094pGpDk7iJyzTYV7XJgGIYbKZqoym4sKaYsUUxRIYqs/0HJ+HzU45mzw79sgP0K/r7zxOd5ncxOLA6whMeUHOlSZOs2uTWNp3hRIuWoGp4L/yck0CWYohHjyPZNThJ0a6j6gRgENkurKq9wN4ITzIMYiePqkOTmLeQYTDg2qmVrYM6M9dkNG+NP2AsUQSRodLs8y7v+SUGJ40hsQD9WyxXXQp/mehUv4my7ipFeHIQK3qZtq7y4d+VhyY/JNuk03gKP5wIzTK1aE3RmSp+RpIltNsp29gpOIlEJkO7zpso7wOgX9lubKpbT7xpY1Vxhs9axtGFJu0EBpRmqzY4t4J4GElDsymqdn4Y6WXZ7tRfcPKUf0GPVJ0A9Cxh1cmL2i+4u/BksVwdJpsxwzC6aqNXj12NWKoYCPs22eG7kR/OqRadNN7ZssOQYl5dhi1aO7XpNIITAB4hW/n6+ylc6C2Wq+5z7scEh8IwzqPSpOoZG1FtkO09RbXJQOKmyRadXISGDCnLPfzOmcbOwUmidp2XhhoB9C/mLGQbWjqJWQRx7v9l4071fuqCsokMJs02ELZx4zgorSH5VD0/jHSmE5w89V/UE7/kAMPIdmPRheeTuNmJto1XyVqm2I8uEJstlqtJ3ExGtcGHBIeySbXJQKJSsOSBsNfxPtxVh33c+LqMr5IDbuEhvYuALkOb3s5tOp2//f777zv/m6LM8v/t/H/sxz994AH0bz5rr5L0pW76V+3zIDZFWJTtxpOn6W60Dqe0/jbpe4jryIHMZ+2qsODkOh4Wr2Le14NiecVBbA05LGyWS9Xrzxlfos+AJ/2sPyk4af74xi+SDPb6tFiuskzmBahWPC1cJvv+rqcwF2JTPLW/SNjuwOP9NJUqk7X5rO2+3/c5juZP5zFLiJ7F+9avBZzn22gFPd1HoBZjBY4SDkO+z/ViuTrId1jUINl7wD+ect341FadJlF/uQ88gAEk3LDTxJOLSZUYR4VNdwHyKcHhsJvrqJKaWmjSJgxNGu0Jg8r+kPM2Wm+6rVbH+6pC6taKx5a0fxawZv61DTv0KMt7wPlTH7Y9ueKk+eOD8LckJWhKywAGkLTqpIk5EY8qpa5JvB5nqk+K8HGxXE3uRj3au68S/oyqWB5Ishb/+3QzS46HqFws4D1bFRZ7l+w94N9doPmU/+NzKk6aRENiPTEAGEDSqpPORXwwT0q8HgfxpJScLmOOxlSvVTLeJN66dhxU1hvx27iJGmyj1cZ79vkQ/74neDfFz1J6lyWkvn1qaNLsITjJUmr6UmkZwGAyXgS/SBTmD6q74I+b8n/avJPKTdyUtVMdPhobFDLOdjid0lykBDJW9nRtcwfPuYl6qnjP7n43fhz63/1IKk7YtyzvAc/qUHlWcBJ91jfP+WfskScHAAOIm8CMT8vezGftZEvvu9elu0nvbtYTfTZP0XpWwig3ZVnEIMCMs1xukh5XleLnIFvF0Xqo+KiBZowZ+FfCNcaCE/Ym0QriZtTgJGT58HkTK8AA6N9xwou9zs9Tr0CMYYSv4uY942tUs/MITE6mXNEQpf5nSVexTvq1GUG2m/BUm9jiIXSb7L36tXsq9ihLccN1/L492T6Ck0xDWVWdAAwgLjqzPrWd5LyTu6J9R4AyjPOYY3I01bacO05j41U2l5YJDO4w0bGkXF8fN3PZAqZMrxuFigdZWSrOnn3N+uzgJN58sqzXeichBRhG3JhnbAnpnnJPbsPOfTbmnwhQ+iEwuSPa5d6lOqj/sUVnQHFNnuWmqXvvO8xabRRtfT8lOJQ1syPZhyxFDbf7mIO3j4qTRtUJwGRl7YXuSo09WQ53ApSfzEB5NoHJPeLp4s/pDuwP588t02ZnmW6+0/+uLpar00QPozMOdaYg8XnwJskRX+wjNN1LcBIpaZaLsEMl2gDDiNWKWS707noXQ8kIEaCcxgyUH23h2clNVO38Q2DyraguyDoM91a1ySiytHucFzSo+ShLZeDU54XxbJmKGfbSWr6vipMmUa/7Cx+OAIPKOii280tsdeCObtZDbOHp1hh/0saz1edYK/xq6kNft4kHVhdJh8F2jr1uo8jw3ltUaBY/p1luOAUnPEmyapNnD4Vd22dwkqkk+ljVCcAw4sl75jbJlfBku1hj3N1Y/hCrjLNWEA3pOlqauuqSwymvFX6ki6TDYBsDYceRaL7JaWmhWbTsZKjkF5zwVNVVmzT7DE7iTel8X/+8Z1J1AjCguNC7TnrOu8+EM4H6w2KVcVde/49o5ZlSiLIOS7rZJQfR0qRK4QExSyjLk8X7aNcbR5Zqk6zb3x6S4cbTAwd2lqza5Hafwfk+K06aZG9Oqk4AhpX5BuV1VJ74XHiEmIVyFtUWf4tKlPPKhsreRjD0452wxOySR0q+Qafz0es5mgw33cWGn3GzN/b77QufmTxBldUmnf/b5z+s6x+az9rLJCnTuurElh2AAcRnQDc880PS8/06PkQ9gd5RtKp8bVeJEvx24yvLutGH3Maa6quYsG/DyjPE4OWsG3Sa6Gt3DTieDMFJ6S1a3Xvu+5GP4cB6fx4rWbVJs+/3gL0GJyFTyWZXdXLmaQPAMLoblfmsPUw876DbtNMdp/DkieIz9Wx9QRJPJA8iSDmIlcdjv/63EZB0F/zd8V4JSvYnQpNfkh+m3/FxjV2pcF3B9f+Z4ITCZAqrz/f9HrD34KQrLZvP2pMkT6BexAvowxNgON177q+Jz7fwZI+iFH519+I6BvL+sDFgcP3nvoZGrlcpf7nzdWU2SX/idc0+N+KjoGx0Yz9ELX6gc1Rx3ox8T6VVh0epvdqk6anipIkP1Czlm90F8omqE4BhFNCy08Rnw1UMtaUHGzeu331aGRdbjyEQGVmEJqvEa4cbLTqEWqokViPPEXo14r+bsmR63+22qe39PaCv4OQsTl6WD1ZVJwADKqBlPKab7wAAIABJREFUp/PzfNb+ZlXpuPq4uGH/CglNGtd744s5SKOq6H3lSnBCdnG9V3W1SdPDVp2v4olQpqd473Z4ogXAfhzFrInMfol5DcAWBYUmP2nRSWHsm+2sq/Gfws8zJch033/T1wOxXoKTkO0JnrJNgAHFDUwJ773CE9iioNDkUusdoaaWPsEJqcVa+kzb9Xq77uwtOImZIud9/fOf4E2UEQEwkLiR+VzA+RaewB0FhSZdZZtrPNaqCRsSzHXKsFaapGKrXqYHZL1VmzQ9V5w0CZ80ehIBMLwukLgp4Lx34YnPCSgrNOkcGhzMBj8L+1PC7z/jyTTTtOm746XX4CRh1cnLWJUMwEDihqaUp8Hv57PWsFgmLSp0SwlNPhkwDDCsGAL9PtFpv+27SKLvipMmYdXJcZQVATCQmHfyUyHn+53whKmKlrX/FBKadKuHjxMcB8DUZLtOOu278rD34CRh1ckLLTsAwyto3kkT4clK0M6URGjySyHfcvd00cZE7mMux/6U0GbLwBKuH+692qQZqOKkSVh1Yj0xwDiOCloV2V0UCE+YhKiyKiU0acw14Tuqec+OWUNj+jLyv59k4pooWxFC79UmzVDBScKqk0bVCcDw4oPtKJ4OlOB1d+GY4OIVetFdBM9n7UX3UKmgM/yTuSZ8x6uKTo7gnmyyrR8epNqkGbDipElYdfI69k4DMKCYd1LS6t8XUXli3SlVieF+XQDxtqDv6zza/kgqQaj1sqJKQRXypBGfGR+SvSKDVJs0QwYnSatOTuIHAIABLZar7gn3x4LOeRee/MdmNmoRVVRXUVVViut42gkPqSVwGLva8Wrkfz+5ZBsIO1i1STNwxUmTsOrEoFiAkSyWq5OEgfpDPnSzIMw9oWQxBPbXQjbnrH0dBmuuSTHGHipaS3AydjWY3ze+is+NTANhmyGrTZqhg5OkVSdvlV8DjOa4oGGxa++idcfcE4oS80xKGwLbCE2KNPZQ0eKv7ZPcn6g4IetA2Juhj2noipMmqk6yDQX09BBgBHEj1BY0LHbttbknlGRjnklJQ2DXjmM2EuUY+/V6WcEGzQyfL8JKmmjRyVaheDJ0mD54cBJVJ9kSKy07ACMpODxZzz3x+UFqEfCVNs9krdugk62vnodlWGNb0hDyv4igc/SQ0/YqIoDMNkD8ZozPhTEqTpoIKbJdIL+rIJkGKFI8TS61euP9fNZead0hm43WnP8UNs9kzQadcmWoEHpX8BKIDKFPaW207Fl0ZGQMrkcZEj5KcBJPFzNuJtCyAzCSeLL1Y6Hnf926Y+MHKUSQV2prThOhSbEVA1OXqFKhuE1ocS+S4bNEexzd78/LZGfhMjYzDm6sipMmniCMPXH7rpclvsEC1CJKL0sNT7on+j/PZ+2FEJ4xxdrsXwttzWmsHa5GhoqFEivKT5NUiAlOJix+b94nPAOj3auPFpyEjB+K7w37AxhPhCelrSne1PUCf/FZwtC6KpOubaxbm13wyb+2QacaWapOimn3ipvVLFVi5ptMVDz8GaWq4wHnY1azjRqcRJnN5ZjHsIWWHYARRYl+yeHJenCs6hMGUUGVSSM0qU6WG+/XJQzxTjZP4tYmq0nLuEXnduzOkLErTpqkVScvkg7CAZiMCsKTZqP6RNsBvaikyqSJ9m2hSV0yVSx0FeXZZ+ZcJJonkbHagAFEtWy2LTqd09jOO5rRg5NIMz+NfRz3eOtCF2BclYQn69knK5t32JfYmHNaQZVJE08SD4UmdYnX83Oib+o063twbL96k+BQ1gQnExRbqDIWD9xkaLnLUHHSRNlNtvXEnRMXuQDjqiQ8aeKi+NfuZlf7Ds8RT86/JB3ct6vbqDTRFlCnTDfgL2L7Wapr+whNsm2/Mt9kmjK26HSOMwTrKYKTxOuJtewAJFBReNLEze6XAsrGSSbacrobml+SXtzuSmhSv2yVC6nCk6Shybnqr+mJOVmZqp7WRls/fNfffv/99wzH8VX06GYsN/20WK607QCMLOlF5nNcx5MUT/fYKsqnTyr72ReaTEQ3JDvpzIQfY4vb4DYGwWY8L//OcqPKMGKb0zLp6f7n2LNN1rIFJwfRq5uRNxGABCoMT5rYMHeU5eKAHOLm6ji+aqgwWROaTEgMm/xP0u/4c7z3DlZhETepZ4kGwW66WSxXr/IcDn2Lz5kvST9jPi6WqzRdKVlmnHyVeFBsEyuKvZEAjKyytp21rjz2v10o5LOGGPx6EhezHyoLTboqq1dCk+mIB483Sb/ht0O1Tsbv9Vk82c8YmjRGFEzSRdLPmBQDYTelCk5C1kGxL0yYBsih0vCkiUoaAcpEVR6YNBGaWDk8TZlvyLvfs1/ms7aXAOXO73X2aknByYQknmvSDF0J9hipWnXWkpf0nccFOwAjiw/9DxW/Dl04dKKFp24Vt+RsEppMWPJ2gLtuIkA4e857b9zPHBbUWuoeZ0KSzzX5vFiuDhMcx1+kDE6a3IOkmjGHSQHwV/GE8JfKT8t5XMQbIluRiQQmTfz8plgnyXi6VewFrtC+iYrzrrXsy7b34KgQ7L66m9GD+LO03+k0QzjpV/y8XiX9Gb2Nds50nxeZg5PsL6ihZgBJRHhyWvnNZxNDZE8NKy9bpVtytvEUm68KqzqZGr+nE5J4k23np8VylWq2yVra4KT540XtnsD8nOBQ7tMl0AeengDkEJvZVhO5KF8PTTvzOVSOKN0/TtxTvm+pNiIwvgm0V5ZKtclEJN9MeLlYrtoEx3Gv1MFJ88eLu0p8gZH6xQWYmghPzhI/SemDNp7EorrkKL6ybtLog7ZmvqHqJCXVJhORvLX5NooS0gZ4JQQnmVt2Gm82ALnEhfnFhJ7qr62rUC48ORxfXKAeJp7X1hftzHxX8oryqUk7T4L9Sj4MtsncorOWPjhpyniD9VQFIJnk5ah9u4zKmwsXxMPZ2KJxONEn6t3mnEPBHQ9JPmNhStLfrPJ8BbQyF9HFUURw0uRv2enMlEkD5DKRjTsP+RwVOEKUHghL/tT9nB35GeMx4kbuVydrVEYOTEBU4a4SB5XpW3TWSgpOsrfsKE0FSCjKUy/01H91uRGiqAp4grgIPYx1o1MPS9YMgWVnBsWOyn3LRBRQfFBM1VMxwUlTxpPD63gT8rQFIJECnriM4SZClO68rHx2bRdPx9dhydRm53zPbVSZWI/Nk2jZGY0WnQkooGW5qKqnooKT5o8fgIvkg9aEJwBJzWdtd6H43utzr+t1iDL1ICWqlA4iKGlVldzLPBOebWJr5LP4vFiuDqd+EmpXwIzQ4gYTlxiclLDGzKYdgKRiJsWZC/UHXUeL7NevWud4RSvwOiQ5UFHyKJ8Wy9VxAcdJAcyiGtRNzJPwgLdihfxO/bu0asXigpOmjHVKjfAEIK+4Wb5QIr6z63h4cRVPiX8rpUc+HrwcxNcrIcmTaM2hF6oBB2GuyQQUcp9cZPheZHDSlPMGq38QIDEX63tzsxGo/Lbx52DBSoRhr+I/tnf+FJA8n9YcelXAEMvS/bhYrs6mfhJqVkjrW7FjLYoNTppyBkp5kwJIzNadwdxGoLJp1/af7qLwh43/3AUlL8s6DUWyNYfeGeLdKw9zK1fQvKB/lVr1VHpwkn1F8ZrwBCCxuGA/Sz58HIZ2E1UmSvsZhPCkF8YHVK6g35uiA7yig5OmrIFSxaZrAFNhcCz86VPTNCeGSDI0m3b2SmhSuYJCk+K3ORUfnDRl7KhuDGQCKIPqEybuJgbAVrlFiTIIT/ZCaFK5gkKTKrY5/T3BMezDcQyayax741/FBwEASXUf7PFU5N8ResNUfIqLW6EJo4oHjQcFXN9nJTSpXGFtbYc1VC9WUXHSlDXvROUJQCHiwuS0gKpGeI7u5vRYYEI2Zp48iUGwlSvs96KaWZ/VBCfN/3rT/5PgUB4iPAEoSGzeObPBhcp01yOnNuaQmQD70W4jALWQonLzWXtRSDtxVZVPVQUnzR8/SN2H/4cEh/IQ4QlAYeIz5ljfPRX4HDdZX7yYlKCga/wx2IA1EYXM9myikrGtacB4dcFJ88cPVFe69CbBoTxEeAJQmGgNPTU8lkIZ/kqxovrvQnj9F5e1zJBgu8Iqr25jXlZVwXytwckPMe+khJJq4QlAgeIC/lTvPYW4jfXCZh9QtLjOvyjkIWnfzDOZgAJn/cxqDOerDE6a8taYCU8ACjWftV3/7on5JyT2KUITT6SpxnzWHsd77xSrTy6j1c69Q+UKDE2qDfOqDU6asobFNsITgHLFhc2x+Sckcx6BiTkmVGmCrZMqxyakwNCk6jXYVQcnTXmDpG6jR1HfMUCBNgIUAwwZ02XcXLmeYBIm0jp5HlUmKscmoMDQpLphsHdVH5w0ZU0fXqtm3zXAFMVT0BPrMxmYwIRJq7R1UuXYxMQ1xEVBoUn38P9V7aHeVIKT0hK7RngCUD4BCgMRmMCGSgIUgckEFTans5nSuIlJBCdNeZt21j4ulquTHIcCwFNFgNK18ByZgcIeCUzgO6KF57igGSi30XJ0JjCZngJDk2ZKD/snE5w05f4wVj1kB2BKDJFlT7on0acGysPjRHh9GOF1xgr0zxGWXCQ4FkYQVVKnQpO8JhWcNP9LnpcJDmUX3ZvpkWFQAPWwxpgddU+izyIw8SQanmgjROm+3ox0Hm9jhkX3QPfCNf60xfXAL4WdhMk93J9ccNKU+8NZ/aRigCkqsJScYd1EwObmCvYsqgC79+CDjT/7eOJ/EyMDuqBkpVqMtfms7apM3hd2QibZETHJ4KT544e0u0j9OcGh7OIm1hV7swWojDko3HEepfvml8CA4r34VYQoP2z82cTfv69K8HLjr79sfvkd5j4R2p0WODx+sg/zJxucNGWuKW6itO/QmzBAvaIy8lAVyuTcbAyGVF0CUKFCN742U++AmHRw0pQbnjTWFQPUL558HsWXWSh1Ws86UF0CULlCl5V0us+qgynP2Jp8cNL88QN8VWDi19i4AzAdcbF1pJWnGp9jbomHIAATUOjmnCZCk3bq4yIEJ2WXSzVTL5kCmKL5rD3c2AohRCnH56guMegVYELms7Yb8v2hwO9YaBIEJ6Hw8MQPNMBExVaedYiinScXK0cBJizuMc8Knln2L/eYfxCcbCg8PGnMPQGYtmjnWQcpb6Z+PkZysw5LFsvVxSTPAADrz+Qz95Z1EJzcEYP4rgoufe7WFx57qgUwbfEwoN34KvXCLbvbdUVJhCWTHZwHwB8KnmeyJjS5Q3Byj4KnHa9dx8piF28AfBUPBroAZV2VIkh5mpt4wLKKoEQJMwB/Knhr65rQ5B6Cky0qCE+6J2BHyoQBuE9UpBxsVKQcGDR7r8sISq5UlACwTTyguCj8wYTQZAvByXdUEJ50PjVNc6J1B4CHxEXfwcbXqwlVptxuVJJ04ciVahIAHiO23Z0Vft8oNPkOwckDKglPrqP6xAUgADuLz8J1qPJq469L/Gy8jD/XAck6JPGAAYCdRPXmaeGtOY3Q5GGCk0eoJDy5jcqT0wTHAkAl4jPyh41ApYnWn7Whtvt0DwnW4cdV/PVv8dfNYrla+ZkDYF8q2JqzJjR5BMHJI1USnnQ+R/WJJ2sADG4+a9s9/Tu/mDcCwBjms/a4aZqfKzj5QpNHEpzsoKLwxOBYAACAHcQssLMBqyn7JDTZgeBkR9HHtqpkWJ7BsQAAAA+Yz9qjmGdSwwY6ocmOBCdPUFl4chPVJ3q/AQAANsS9XxcyvK3gvOg8eCLByRNVFp40qk8AAAD+p7Iqky40aW1afRrByTNEeHJRSY9bo/oEAACYuspmmTRCk+cTnOzBfNaeVbC7e5PNOwAAwOTExpyTSqpMmljXfyQ0eR7ByZ5UGJ50qeSxoUEAAEDtYoPqWUWjGJoITVoPxJ9PcLJHFe3z3nQZAYqEEgAAqEqMX+gqTN5X9q1193GHQpP9EJzsWQwQ+qWqb+oPH7vBSH7xAACAGsxn7WEMf31Z2Qt6vliujhIcRzUEJz2IMq9VRX1xazexeUf7DgAAUKS4XzutaPjrpo+L5eokz+HUQXDSk0p75Na07wAAAEWpuC1n7UcPufshOOlR/GKuKg1POucRoGjfAQAA0qpwW84m64Z7JjgZQIUbdzbdRpmb+ScAAEAq81nbRidAbXNM1qwbHoDgZCCVbtzZZP4JAACQQgQmJ5XOMVmzOWcggpMBxdTms0rLw9Zuon3nIsfhAAAAUzGfta8iMKm14n/t02K5Os5xKPUTnAys8qGxmy6jAmWV55AAAIAaTSgwuY0H1Sr9ByQ4GUEMje1+0N9O4NsVoAAAAL2YUGDSRHX/oXkmwxOcjGg+a7tf8A8T+XYFKAAAwF5MLDBpzDMZl+BkZBOZe7JJgAIAADzJBAOTxjyT8QlOEohf/osJzD3Z1AUoZ3rzAACAh0w0MLmNVcMWb4xMcJLIfNaeNk3zfmLftjXGAADAvSayVvg+19Ga8yXfoU2P4CSZCbburHVpahccnerbAwCAaZvP2qOu2mKCgUmjNScfwUlCE23d2XQeVSjSVQAAmIjYPnocgcnLCb7uWnOSEpwkNtHWnU3moAAAQOXms/YgApPDCVber11GaOLhcUKCk+Sip+9iwm8gTcxBOYsQxRsJAABUYOLtOJs+LparkzyHw12CkwJEyVoXHLyd+rlomuZzBCjK1wAAoDAxlmDdjjPlh8NNPCDuBsBeJTgWvkNwUpBIZE+9wXx1E5U4p6pQAAAgr3gQfBiByVTnON7VzXU8thijDIKTwkRCe6ac7S+uI1C68MYDAAA5xMbQ7uudl+RPBsAWSHBSqPmsPY595qpP/upzBCgGygIAwMBi0OuRVpx7fY7QxMPewghOCqb65Ltuo5XnQpoLAAD92QhLDie6RvghqkwKJzipgOqTBwlRAABgj4Qlj6bKpAKCk0qoPtnJ540gxRsYAAA8wsbMklZY8qCbGP7qwW0FBCeVsXlnZ9cbIYo1YAAAEOLhbLsRlrjHeJxPXUeAh7T1EJxUKNZ9ddUnb6d+Lna0bulZdV/WHAMAMDVRVdLGl9XBu7mOKpNVSQfNwwQnFZvP2jYCFGV0T3O9DlEiSJEYAwBQlbhnWH9p+3+a7gHs6WK5Oinx4HmY4GQC5rO2+wU+Vlr3bOsg5UpFCgAApYnK9ANByV59jioT9wYVE5xMRPQnnmrf2aubdYjS/akkDwCATGLzzcFGWKL1Zn9uYluOe4AJEJxMjPad3l1HmHIlTAEAYCh3QpID1SS90ZYzQYKTiZrP2q5150T7ziC6NPpLVKZ0f34RqAAA8BRRSb7edvMqQhKVJMM4j2052nImRnAyYdHj2IUn76d+LkayDlS66pTfIlj5zVpkAIBp2whHXm2EI68EJKO5jMDEw8+JEpywfmM+U86Xym0EKk0EKs1GwNJ40wYAKNNGKNJE1UgTwcgP8fe11OdxE4NfL6Z+IqZOcMKfYv7JiQClKJsBS7NuBbrzDQhZAAD6tQ4+NrUbfy0QKcttVJicTv1E8AfBCd+Yz9qjCFC8uQMAAFNxG5tIu+Gvv3nVWROcsJUABQAAmIhPUWUiMOEbghMeZAMPAABQKZtyeJDghEeJDTzH8SVAAQAASiYw4dEEJ+xEgAIAABRMYMLOBCc8mRkoAABAIQQmPJnghGcToAAAAAnZksNeCE7Ym/msPYwWnjfOKgAAMJKbpmnOBCbsi+CEvZvP2rZpmq4K5Z2zCwAADOQ6wpIzJ5x9EpzQm/msfRUVKEcGyQIAAD35HIHJygmmD4ITehebeA7NQQEAAPbkdqMdx8BXeiU4YVDaeAAAgGe4joGvF+aXMBTBCaOINp6j+FKFAgAAbNNVl1xEdcmVs8TQBCeMLrbxHKpCAQAANqguIQXBCWnELJR1FcprrwwAAEzOenbJmeoSshCckNJ81h5EgHKolQcAAKr3OcKSCy812QhOSG+jlefQWmMAAKjGZVSXaMUhNcEJRTEPBQAAina9EZZYI0wRBCcUKeahdAFKqxIFAABSE5ZQNMEJVdDOAwAAqXyOFcIrYQmlE5xQnY3Bsq3tPAAAMIjbCErWYYmZJVRDcELV5rP21UY7T6saBQAA9uZ6HZZYHUzNBCdMynzWthtBimoUAAB4vJuumkRVCVMjOGGyYsBsu/ElSAEAgP9ZByUrs0qYMsEJhDtBSjcn5Y1zAwDAhAhK4B6CE/iOaO052AhTXjpfAABUoBvmehUhyZXWG9hOcAI7iKqUzSBFmAIAQAkuIyD5+mWYKzye4ASe6U6Y8iq+tPkAADCGm82AJEISLTfwDIIT6EmsQn51J1A5sBIZAIA96CpIftsISH5bLFcrJxb2T3ACI4jZKetKlc0/bfYBAKCJypEv93xdmUUCwxKcQEIRrDQblSrNRrjSaAUCACjWdVSKNOtKkY3KkUYwAvkITqBwGy1Bm9ot39W6ugVqM3Yb3KWfKBIb+/dj8yYRarGuBLnP3f/uN4NYoWyCEwCKN5+1qzErsRbL1d/8FJHV2L8fTdPMzF0AoGR/9+oBAAAA3E9wAgAAALCF4AQAAABgC8EJAAAAwBaCEwAAAIAtBCcAAAAAWwhOAAAAALYQnAAAAABsITgBAAAA2EJwAgAAALCF4AQAAABgC8EJAAAAwBaCEwAAAIAtBCcAAAAAWwhOAAAAALYQnAAAAABsITgBAAAA2EJwAgAAALCF4AQAAABgC8EJAAAAwBaCEwAAAIAtBCcAAAAAWwhOAAAAALYQnAAAAABsITgBAAAA2EJwAgAAALCF4AQAAABgC8EJAAAAwBaCEwAAAIAtBCcAAAAAWwhOAAAAALYQnAAAAABsITgBAAAA2EJwAgAAALCF4AQAAABgC8EJAAAAwBaCEwAAAIAtBCcAAAAAWwhOAAAAALYQnAAAAABsITgBAAAA2EJwAgAAALCF4AQAAABgC8EJAAAAwBaCEwAAAIAtBCcAAAAAWwhOAAAAALYQnAAAAABsITgBAAAA2EJwAgAAALCF4AQAAABgC8EJAAD/v737vY3jRuMAzDvku9yBdBVYV4FmgPluXQXWVWClAssVRKnA6woifx9gxhXcbgUndSBVkAMdKtEZHuvfrobkPA+wUD4E8CzpZKgfX74EACYITgAAAAAmCE4AAAAAJghOAAAAACYITgAAAAAmCE4AAAAAJghOAAAAACYITgAAAAAmCE4AAAAAJghOAAAAACYITgAAAAAmCE4AAAAAJghOAAAAACYITgAAAAAmCE4AAAAAJghOAAAAACYITgAAAAAmCE4AAAAAJghOAAAAACYITgAAAAAmCE4AAAAAJghOAAAAACYITgAAAAAmCE4AAAAAJghOAAAAACYITgAAAAAmCE4AAAAAJghOAAAAACYITgAAAAAmCE4AAAAAJghOAAAAACYITgAAAAAmCE4AAAAAJghOAAAAACYITgAAAAAmCE4AAAAAJghOAAAAACYITgAAAAAm/GRgAF5e1zaHIYSDEEL8+Sr9jI5MB1CZoWsbc/p4mxDCdfqsQwiX8dMP41jaFwEoneAEYMe6tonBSJM+h8IRAB7g9Z1/5c3tP6QQapPClBiirPthXBtQgN0RnADsQKooOUlhyWtjDMAWvU6ft+GPd85VClEu4s9+GK8NNsD2CE4AtuROWHIcQtg3rgC8kP0UotwGKZ9DCKt+GC9MAMDzCU4AniEdw4lhyamwBIBMxKM9b7q2uYkBSgjhvB/GS5MD8DSCE4An6NomNnY9S9Ule8YQgAzF99O7+Ona5kt8b2kuC/B4ghOAR7gTmLw1bgAU5CjdcLRJFSgrkwfwMIITgAcQmABQidhU9mPXNicqUAAeRnAC8AOph0nsX/LeOAFQkdsKlHiE50QPFIBpfzc2AN/XtU3sX7IWmgBQsRig/Ldrm7O0WQDANwQnAN+IC8eubeIVjr+5KQeAhYibBOuubRoTDvD/BCcAd6Qqk8t0lSMALMl+Or5zbtYB/qLHCcBfvUzONX8FgK/XFzep98nacABLp+IEWLx0Y84oNAGAP8Xbd8Z0+w7AoglOgEVLO2rrtEAEAP6yl64udnQHWDTBCbBYaRdtSAtDAOD74tGdlVt3gKUSnACLlHbPPpp9AHiQt+nojvAEWBzBCbA4cdcs7p6ZeQB4lNfCE2CJBCfAoqTQRBNYAHga4QmwOIITYDGEJgCwFcITYFEEJ8AiCE0AYKuEJ8BiCE6A6nVtcyY0AYCtE54AiyA4AaqWrhx+b5YBYCdieHJuaIGaCU6AanVtc+jKYQDYubfpmn+AKglOgCqlsuHR7ALAi3iXqjwBqiM4AWp1EULYM7sA8GLOU7UnQFUEJ0B1UjPYIzMLAC8qblisDDlQG8EJUJWubRrNYAFgNq/1OwFqIzgBqpH6mtjpAoB5vUsbGQBVEJwANYlHdPbNKADMbpU2NACKJzgBqpB2tt6ZTQDIQtzIODUVQA1+MotAJWo7T30TQlhn8BylOHSLEmRrE0K4Nj0PclBZ5eT7rm1W/TBeZvAsAE8mOAGK17XNSWxGV/D3iL9UjCkoWffDKDB5pK5tRjcpQbZO+2EcTc/DdW1zkEKUJn1K/v/bKn0HgGIJToCipfPTJVabfEmLydFOHAB3pffCZQrVv+ra5jiEcPspqcLuKB6nFZ4BJROcAKU7LWgBGY/fXMQmtsISAB6jH8b4/rhIGwYn6f1XyrGe83SkEqBImsMCxUqLx1Iaz32IZdf9MJ4ITQB4qn4Yr/thPO+HMR7l+XcI4aqAwXydjtUCFElwApSshGqTeCTnH/0wxioTzREB2Jp+GFepkuNDAaN6lsEzADyJ4AQoUgHVJvFYzr/6YWxUmACwK6kCJYYS/0zNxnO1H3ud+IsAlEhwApQq5+Z4ceF6mM6jA8DOxRvZ+mGM1Se/Zjzaqk6AIglOgFLluvj6FK9dVGUCwBz6YTxNvU9ydJSuWgYoiuARmIy6AAAKMklEQVQEKE4q9c3xJoFPqfmrXiYAzCb1PmnTsdHcqDoBiiM4AUqUY2f+r6FJBs8BADE8GWMFZIbhyXEGzwDwKIIToCipKWxuiy6hCQDZiX1PMnxn7rmaGCiN4AQoTW5NYT8LTQDIVao8ya3niaoToCiCE6A0OS22NpkeGwKAP6WeJzndtvMmVZACFEFwApTmTUbPqxEsAEVIt+1sMnpWVSdAMQQnQDG6tslpkfVzOjsOAKXIqUqyyeAZAB5EcAKUJJdF1qYfxvMMngMAHiwF/h8yGTEVJ0AxBCdASXJZZJ1m8AwA8Gj9MJ6FEK4yGLl4u85hBs8BcC/BCVCE1ERuP4Nn/ZJuKACAUp1l8tyO6wBFEJwApchlcZXLYhMAniTdspND1YmKE6AIghOgFDksrlSbAFCLHDYCVJwARfjJNAGFyGFxtcrgGchQ1zYW/+TsldnhOy5CCLHR+d6Mg7Mfj+K62h/IneAEKMXcFSc3qbQZvmcwKkBJYljRtU0MT97O/Njx/a6aE8iaozpAKebcEQtpZw4AapLDu02fEyB7ghMge5kcgxCcAFCVfhjju+1m5u/kKBmQPcEJUIIcFlXKiAGo0dzvNxUnQPYEJ0AJ5l5UbTSuA6BS65m/looTIHuCE4D7qTYBoFZzv+MO6h1aoBaCE6AEcy+qLssYJgB4tLkrTvZn/vMB7iU4AUowd3Ay96ISAHbCUVSA+wlOAABg2TZLHwCAHxGcANxPxQkANVN1AvADghOAeyhjBoDd6dqmMbxAzgQnAAAAABMEJwAAAAATBCcAAAAAEwQnAAAAABMEJwAAAAATBCcAAAAAEwQnAADs0troAlAywQkANbg0i5CnfhivTQ0AJROcAFADO9qQpy/mBYDSCU4AqMGFWYQs+W8TgOIJTgAoXj+M8ajOxkxCdgQnABRPcAJALc7NJGTlUwo1AaBoghMAqtAP40rVCWTlzHQAUAPBCQA1OTWbkIVfVZsAUAvBCQDV6IdxDCF8MKMwq00/jEJMAKohOAGgKv0wxuMBn8wqzCIel2sMPQA1EZwAUJ1+GE+EJ/DivoYm/TBeG3oAaiI4AaBKKTz5OYRwY4Zh5z4LTQColeAEgGr1wxivKD5Mv9QB23cVQvhXP4zHQhMAavWTmQWgZulmj+OubQ7S9ajHIYQ9kw7PEsPIi3QNOABUTXACwCKkACUe3wld2xymSpQDsw8PFitK1un2KgBYDMEJAIvTD+M6/gJo5gEAuI8eJwAAAAATBCcAAAAAEwQnAAAAABMEJwAAAAATBCcAAAAAEwQnAAAAABMEJwAAAAATBCcAAAAAEwQnAAAAABMEJwAAAAATBCcAAAAAEwQnAAAAABMEJwAAAAATBCcAAAAAEwQnAAAAABMEJwAAAAATBCcAAAAAEwQnAAAAABMEJwAAAAATBCcAAAAAEwQnAADAnNZGH8iZ4ATgHl3bNMYIAHajH8ZrQwvkTHACAADLdrT0AQD4EcEJUIK5d6IOyxgmAABg2wQnQAnmPvt8UMYwAcDjZHAc9WbmPx/gXoITgPupOAGgVnO/4zSGBbInOAFKcDnzMzr7DUCtNEAHuIfgBCjB3MGJm3UAqNXc77ex3qEFaiE4AUqQQxnvcQbPAABb07VNPKazN/OIuooYyJ7gBMheP4zXGTSPE5wAUJuTDL6PHidA9gQnQCnmXljtO64DQGUEJwAPIDgBSpHDwiqHBSYAPFvXNicZHNO5SVWlAFkTnAClyCE4edu1zUEGzwEAz5XDZoDGsEARBCdAKXJZXJ1l8AwA8GTp6GkOV+07pgMUQXACFKEfxngl8VUGz6rqBIDS5bIJoOIEKILgBChJLgusVQbPAACPlnqb5FBtEvubCE6AIghOgJLkssA66trG9cQAFKVrm1chhPNMnlloAhRDcAKU5CKjZ12lBSgAlGKVwU06t3J6pwP8kOAEKEa6svBLJs+7Z9EHQCm6tjkNIbzJ6HFVnADFEJwApckprIhHdnIpeQaA7+ra5jCE8EtGo7NJTd8BiiA4AUqTW2PWd6nRHgBkJ4UmuVV32HQAiiI4AYqSjut8zuyZPwpPAMhNuj5/zKivyS1HXYGiCE6AEuW44BKeAJCNVGmyzjA0+ZQ2QQCKITgBitMPYzyuc5Xhc39MzfcAYDZ3jufkFpqEDI/cAtxLcAKUKteF1y9d27iqGIBZpOrH/2Qamlz1w+g2HaA4ghOgVDk3lnsbd/rSjh8A7FwM7Lu2iUdZP2Y82mcZPAPAo/3t999/N2pAkWJlRwopcvYhhjzOcwOwK13bHKcNhf2MBzlWmxxk8BwAj6biBChZCTtX72NzPo1jAdi2rm2arm3i0ZffMg9NgmoToGQqToCiFVJ1cis2tD1LzW0B4EliYJKCiKNCRlC1CVA0wQlQtK5tDjK9bvFHblJz21U/jOt8HxOAXKT3XTySc1pAdcm3/m3TACiZ4AQoXtc2Z+lITImu0pWR8bMWpAAQUrPXEEJz5/O60IHZ9MOoWTpQNMEJULy0uFwXuAM3ZRNCiM1kL9MHgPrFd9ltwFDKEZyHaF1BDJROcAJUId0o8JvZBIBsfO6H8dh0AKVzqw5QhX4YL+ICzWwCQBZiPy83ygFVEJwANTlNCzUAYF7xFrlrcwDUQHACVKMfxku7WwAwu3hE59w0ALUQnABVcWQHAGbliA5QHcEJUKOTdM0vAPCyjh3RAWojOAGqkxZsx/qdAMCL+uDqYaBGriMGqtW1Taw8+WiGAWDnXD0MVEvFCVCtfhhXIYRfzTAA7NRGXxOgZipOgOp1bRMDlLdmGgC2Lh6LPdDXBKiZihOgev0wxl2wL2YaALYqhiaN0ASoneAEWIrjVEoMADzfbWiyNpZA7QQnwCKk3bBGeAIAzyY0ARZFcAIshvAEAJ5NaAIsjuAEWJQ74cknMw8AjyI0ARbJrTrAYrltBwAebKMRLLBUKk6AxUq37fzsbwAA/NBnoQmwZCpOgMXr2iYe3bkIIewtfSwA4Bsf+mE8MyjAkglOAP4ITw5SePLaeADA134mJ/0wXhgKYOkEJwB3dG0Td9XeGxMAFuxLCOHY0RyAPwhOAL7Rtc1hqj7ZNzYALEisMjnrh/HcpAP8RXACMEH1CQAL8iUdzbk06QD/T3AC8AOp90m8tvjIOAFQoasQwqleJgDTBCcAD5Bu3jnXPBaASsRjOeduzAG4n+AE4BG6tjmJ57/1PwGgUDdpI+Bc81eAhxGcADxB1zbHsbTZER4ACnGVjp4KTAAeSXAC8AzpBp4YoMQgZc9YApCZ2PR11Q/jysQAPI3gBGALurZ5lcKTE1UoAMzsKl2rf+6WHIDnE5wAbFm6iadJQcob4wvAC9iksOSiH8a1AQfYHsEJwI6lG3luP6pRANiGGJSMIYR1Ckv0LQHYEcEJwAtLfVFiVcph+rxKP/VIAeBbMSC5TiFJ/Lnuh3E0SgAvR3ACkJHUK+XQnAAs2qXeJACZCCH8Dxz4fAi6oNNJAAAAAElFTkSuQmCC;fontSize=22;arcSize=14;fillColor=none;strokeColor=#FFFFFF;fontColor=#FFFFFF;" parent="1" vertex="1">
                    <mxGeometry x="170" y="350" width="120" height="82" as="geometry"/>
                </mxCell>
                <mxCell id="31" value="&lt;font style=&quot;font-size: 18px&quot;&gt;OpenCV&lt;/font&gt;" style="text;html=1;fillColor=none;align=center;verticalAlign=middle;whiteSpace=wrap;rounded=0;fontSize=22;fontColor=#FFFFFF;" parent="1" vertex="1">
                    <mxGeometry x="414" y="381" width="40" height="20" as="geometry"/>
                </mxCell>
                <mxCell id="48" style="edgeStyle=orthogonalEdgeStyle;rounded=0;orthogonalLoop=1;jettySize=auto;html=1;exitX=1;exitY=0.5;exitDx=0;exitDy=0;entryX=0.5;entryY=0;entryDx=0;entryDy=0;fontSize=22;strokeColor=#FFFFFF;fontColor=#FFFFFF;" parent="1" source="34" target="35" edge="1">
                    <mxGeometry relative="1" as="geometry"/>
                </mxCell>
                <mxCell id="34" value="" style="rounded=1;whiteSpace=wrap;html=1;fontSize=22;fillColor=none;strokeColor=#FFFFFF;fontColor=#FFFFFF;" parent="1" vertex="1">
                    <mxGeometry x="-7" y="260" width="120" height="70" as="geometry"/>
                </mxCell>
                <mxCell id="36" value="&lt;font style=&quot;font-size: 17px&quot;&gt;Python&lt;/font&gt;" style="text;html=1;fillColor=none;align=center;verticalAlign=middle;whiteSpace=wrap;rounded=0;fontColor=#FFFFFF;" parent="1" vertex="1">
                    <mxGeometry x="328" y="321" width="90" height="29" as="geometry"/>
                </mxCell>
                <mxCell id="52" style="edgeStyle=orthogonalEdgeStyle;rounded=0;orthogonalLoop=1;jettySize=auto;html=1;exitX=0.75;exitY=0;exitDx=0;exitDy=0;fontSize=22;strokeColor=#FFFFFF;fontColor=#FFFFFF;" parent="1" source="40" target="4" edge="1">
                    <mxGeometry relative="1" as="geometry">
                        <Array as="points">
                            <mxPoint x="776" y="200"/>
                            <mxPoint x="776" y="200"/>
                        </Array>
                    </mxGeometry>
                </mxCell>
                <mxCell id="54" value="" style="edgeStyle=orthogonalEdgeStyle;rounded=0;orthogonalLoop=1;jettySize=auto;html=1;fontSize=22;strokeColor=#FFFFFF;fontColor=#FFFFFF;" parent="1" source="40" target="53" edge="1">
                    <mxGeometry relative="1" as="geometry">
                        <Array as="points">
                            <mxPoint x="765" y="460"/>
                            <mxPoint x="765" y="460"/>
                        </Array>
                    </mxGeometry>
                </mxCell>
                <mxCell id="59" style="edgeStyle=orthogonalEdgeStyle;rounded=0;orthogonalLoop=1;jettySize=auto;html=1;exitX=0.25;exitY=1;exitDx=0;exitDy=0;fontSize=22;strokeColor=#FFFFFF;fontColor=#FFFFFF;" parent="1" source="40" target="8" edge="1">
                    <mxGeometry relative="1" as="geometry"/>
                </mxCell>
                <mxCell id="40" value="" style="rounded=1;whiteSpace=wrap;html=1;fontSize=22;fillColor=none;strokeColor=#FFFFFF;fontColor=#FFFFFF;" parent="1" vertex="1">
                    <mxGeometry x="610.5" y="321" width="220" height="109" as="geometry"/>
                </mxCell>
                <mxCell id="41" value="&lt;font style=&quot;font-size: 17px&quot;&gt;Python&lt;/font&gt;" style="text;html=1;fillColor=none;align=center;verticalAlign=middle;whiteSpace=wrap;rounded=0;fontColor=#FFFFFF;" parent="1" vertex="1">
                    <mxGeometry x="608.5" y="321" width="90" height="29" as="geometry"/>
                </mxCell>
                <mxCell id="42" value="&lt;font style=&quot;font-size: 25px&quot;&gt;Solenoid&lt;/font&gt;" style="rounded=0;whiteSpace=wrap;html=1;fillColor=none;strokeColor=#FFFFFF;fontColor=#FFFFFF;" parent="1" vertex="1">
                    <mxGeometry x="645" y="565" width="240" height="70" as="geometry"/>
                </mxCell>
                <mxCell id="55" value="" style="edgeStyle=orthogonalEdgeStyle;rounded=0;orthogonalLoop=1;jettySize=auto;html=1;fontSize=22;strokeColor=#FFFFFF;fontColor=#FFFFFF;" parent="1" source="53" target="42" edge="1">
                    <mxGeometry relative="1" as="geometry"/>
                </mxCell>
                <mxCell id="53" value="" style="rounded=0;whiteSpace=wrap;html=1;fontSize=22;fillColor=none;strokeColor=#FFFFFF;fontColor=#FFFFFF;" parent="1" vertex="1">
                    <mxGeometry x="705" y="470" width="120" height="60" as="geometry"/>
                </mxCell>
                <mxCell id="56" value="Relay" style="text;html=1;fillColor=none;align=center;verticalAlign=middle;whiteSpace=wrap;rounded=0;fontSize=22;fontColor=#FFFFFF;" parent="1" vertex="1">
                    <mxGeometry x="720" y="490" width="90" height="20" as="geometry"/>
                </mxCell>
                <mxCell id="57" value="M5Stick" style="text;html=1;align=center;verticalAlign=middle;whiteSpace=wrap;rounded=0;fontSize=22;fontColor=#FFFFFF;" parent="1" vertex="1">
                    <mxGeometry x="5" y="280" width="90" height="25" as="geometry"/>
                </mxCell>
                <mxCell id="62" value="Unbrella" style="text;html=1;fillColor=none;align=center;verticalAlign=middle;whiteSpace=wrap;rounded=0;fontSize=22;fontColor=#FFFFFF;" parent="1" vertex="1">
                    <mxGeometry x="5" y="381" width="90" height="20" as="geometry"/>
                </mxCell>
                <mxCell id="63" value="傘立て" style="text;html=1;fillColor=none;align=center;verticalAlign=middle;whiteSpace=wrap;rounded=0;fontSize=22;fontColor=#FFFFFF;" parent="1" vertex="1">
                    <mxGeometry x="495" y="690" width="90" height="20" as="geometry"/>
                </mxCell>
            </root>
        </mxGraphModel>
    </diagram>
</mxfile>